<svg xmlns="http://www.w3.org/2000/svg" data-name="Layer 1" viewBox="0 0 161.82 143.5" x="0px" y="0px"><title>food icons</title><path d="M41.6,112.25c2.19,0,4.39.37,6.58.59a379.89,379.89,0,0,0,42.65,1.93c11.85-.15,23.64-1.09,35.21-4,5.62-1.39,11.31-2.48,17.19-3.76,2.47-4.62,2.54-5,2-10.57a6.11,6.11,0,0,0-1.53-.71c-4.33-.8-8.65-1.69-13-2.25-3.21-.42-6.39-.1-9,2.28-.73.67-1.75,1-2.45,1.73-4,3.85-8.71,3.5-13.54,2.64a23.66,23.66,0,0,1-3.45-1.06A23.68,23.68,0,0,0,90.41,98a91.39,91.39,0,0,0-10.59,2.1c-5.12,1.54-9.95,1.31-14.45-1.54a9.56,9.56,0,0,0-7.5-1c-1.17.24-2.28.86-3.45,1a71.5,71.5,0,0,1-9.55,1c-3.1,0-5.86-1.12-7.52-4.13-2.44-4.39-5.91-6.15-11-4.61a11.24,11.24,0,0,1-10.73-2.38,19.29,19.29,0,0,0-3.78-1.87,7.12,7.12,0,0,0-.26,2.14c1.11,4.67,2.18,9.37,3.52,14a6.21,6.21,0,0,0,2.45,3.25,29.3,29.3,0,0,0,7,3.46A58.54,58.54,0,0,0,41.6,112.25Z"/><path d="M26.37,86.64c4.65-1.5,8.63.37,11.79,4,.39.45.69,1,1.07,1.44a8.49,8.49,0,0,0,8,3.27,53.69,53.69,0,0,0,7-1.58c4.38-1.14,8.69-1.55,12.85.79s8.35,2.27,12.76.67c8.2-3,16.45-3.37,24.65.13.18.08.36.18.54.25,3.64,1.38,7.06,1.23,10.18-1.38.91-.78,2-1.32,3-2.08,4.4-3.63,9.38-4.18,14.76-2.94,2.54.59,5.12,1,7.68,1.48a11.24,11.24,0,0,0,8.05-1.58c2.6-1.48,5.41-2.56,8.13-3.82a27.06,27.06,0,0,0,3.75-1.82,2.54,2.54,0,0,0,.41-4.13c-2-2-4-4-7.19-4.76-7.94,4.29-16.53,5.79-24.63,8.7-7.6.44-15.24,1.52-22.8,1.13S91.5,84,84.09,84.07c-6.22,0-12.44,0-18.65-.11-3.4,0-6.8-.37-10.2-.35a60.93,60.93,0,0,1-24.08-4.46A21.83,21.83,0,0,0,27.75,78a52.62,52.62,0,0,1-13.33-5.43c-1.24-.67-2.4-1.49-3.68-2.05a5.21,5.21,0,0,0-2.85-.64c-3.27.65-6,2.14-7.55,5.36a3.12,3.12,0,0,0,.35,3.38,6.79,6.79,0,0,0,6.2,3c3.5-.13,6.86.45,9.57,2.87A9.29,9.29,0,0,0,26.37,86.64Z"/><path d="M81.31,62.9c-14.4-2.26-28.81-4.46-43-7.81a5.85,5.85,0,0,0-1.63.26A68.86,68.86,0,0,0,51.3,73.07L83.53,64A11.31,11.31,0,0,0,81.31,62.9Z"/><path d="M138.81,59.78a44.72,44.72,0,0,1-15.93,2.68A59.9,59.9,0,0,0,108,64.18a185,185,0,0,1-21.24,4.2c-7.41,1-14.55,2.94-21.76,4.7-3.4.83-6.95,1.72-10.2,4.36a19.68,19.68,0,0,0,2.64.9c7.52,1.17,15,2.68,22.7,1.21a41.54,41.54,0,0,1,6.61-.39c11.44-.34,22.88-.61,34.32-1,8.92-.31,17.39-3,25.91-5.32a9.91,9.91,0,0,0,6.43-5.93,3.6,3.6,0,0,0-1.14-4.82c-1.86-1.51-3.83-2.89-6.06-4.56C143.38,58.37,141.05,59,138.81,59.78Z"/><path d="M12.08,67.12a10.62,10.62,0,0,1,3.86,1.56c7.78,4.46,16.35,6.45,25,8.08,2.13.4,4.3.64,6.45.95l.42-1.1c-.76-.87-1.54-1.72-2.3-2.6-2.73-3.19-5.87-6.12-8.08-9.63-3.3-5.24-8.53-8.38-12.6-12.74a2.52,2.52,0,0,0-1.05-.55C20.42,50,17.15,48.47,14,47.72A73.42,73.42,0,0,0,7.4,52.63c-4,3.79-3.95,6.69-1.1,10.56C7.71,65.1,9.37,66.81,12.08,67.12Z"/><path d="M38.92,50.09c10.95,2.67,22.11,4,33.31,5.12,3.59.36,7.18,1.06,10.77,1.1q19.27.21,38.55,0A81.58,81.58,0,0,0,134.1,55c5.4-.92,10.28-3.31,15-6.07a5.85,5.85,0,0,0,3.07-5.46,13,13,0,0,0-.22-3c-1.16-4.92-2.76-9.61-6.18-13.55-4.65-5.36-9.73-10.3-16-13.58-9.61-5.05-19.95-8.41-30.35-11.49A34,34,0,0,0,89.45,0c-8,.14-16,.79-24,1.39A106.69,106.69,0,0,0,40.58,5.81a83.15,83.15,0,0,0-12.87,5A65.43,65.43,0,0,0,13,21.13,31.06,31.06,0,0,0,3.93,35.24c2.66,5,2.62,5.14,4.47,5.92,3.87,1.64,7.67,3.47,11.81,4.42C26.46,47,32.69,48.57,38.92,50.09Zm91.94-28.33a5.41,5.41,0,0,1-5.81-1.86c-.52-.54-.35-1.73-.67-3.71C127.73,17.92,129.52,19.23,130.86,21.76Zm-13.74,3c-.51.7-.74,1.35-1.18,1.57a3.58,3.58,0,0,1-4.28-1,2.34,2.34,0,0,1,0-2.14,2.4,2.4,0,0,1,3.12-1A11.05,11.05,0,0,1,117.12,24.76ZM110.6,10.94c2.31.16,3.31,1.43,3.45,3.67C110.25,14.63,109.84,14.19,110.6,10.94ZM97.37,16.1c2.26.24,4.47.34,6.32,3.09C97.77,20.44,97.09,20.08,97.37,16.1Zm1.16,9.84a1.75,1.75,0,0,1,1.49.68c.7,1.55,1.78,3.14,0,5.6-1.12-1-2.2-1.54-2.68-2.43a4.61,4.61,0,0,1,0-2.83A1.78,1.78,0,0,1,98.53,25.94ZM93.05,5a1.66,1.66,0,0,1,1.55.4c.81,1.28,1.42,2.69,2.63,5.08-3.67-.51-4.76-1.95-5-4.1A1.69,1.69,0,0,1,93.05,5ZM85.71,20.31c1.4-.19,3.07.9,3,2.23a2.34,2.34,0,0,1-1.29,1.69,2.23,2.23,0,0,1-2-.51A6.23,6.23,0,0,1,84.85,21C84.84,20.78,85.41,20.54,85.71,20.31ZM75.93,8.64c1.14-.36,1.78.44,2.15,1.39a8.34,8.34,0,0,1,.3,1.56c-.07.52-.09.91-.18,1.28a1.21,1.21,0,0,1-1.87.43A7.62,7.62,0,0,1,74.78,11,1.76,1.76,0,0,1,75.93,8.64ZM73.28,25.88c.18-.95.94-2,2-1.63.77.25,1.3,1.22,2,2A26.91,26.91,0,0,1,76,29a1.39,1.39,0,0,1-2.37-.37A6.24,6.24,0,0,1,73.28,25.88ZM67.48,8.12a1.33,1.33,0,0,1,1,1.8c-1.21,1.85-2.61,3.47-5,3.8C62.81,10.24,64.62,7.84,67.48,8.12ZM61.36,21c.63,0,1.22.72,1.79,1.08a10.17,10.17,0,0,1-.5,2c-.82,1.6-2.18,2.46-3.16,1.85a2.42,2.42,0,0,1-1-1.85C58.62,22.13,59.84,20.84,61.36,21ZM50,12.32a1.8,1.8,0,0,1,1.48.68,1.6,1.6,0,0,1,0,1.55,32.73,32.73,0,0,1-4.31,2.84c-.32.18-1-.3-1.69-.53C45.73,14,47.45,12.73,50,12.32ZM30.67,20.25a8.32,8.32,0,0,1,1.88-2.12c1-.66,2.13-1.1,3.2.26-.21.46-.32,1.12-.71,1.44-1.15.93-2.18,2.42-4,1.43C30.79,21.12,30.54,20.43,30.67,20.25Z"/></svg>